<svg xmlns="http://www.w3.org/2000/svg" viewBox="0 0 32 32" fill="none">
  <!-- Minimalist SaaS logo: Two layered blue geometric shapes forming a 'D' / Document -->
  <!-- Base layer -->
  <path d="M6 8C6 5.79086 7.79086 4 10 4H18L26 12V24C26 26.2091 24.2091 28 22 28H10C7.79086 28 6 26.2091 6 24V8Z" fill="#1e40af"/>
  <!-- Top folded layer (lighter blue) -->
  <path d="M10 8C10 5.79086 11.7909 4 14 4H18L26 12V20C26 22.2091 24.2091 24 22 24H14C11.7909 24 10 22.2091 10 20V8Z" fill="#3b82f6"/>
  <!-- Corner fold detail -->
  <path d="M18 4V12H26L18 4Z" fill="#93c5fd" opacity="0.9"/>
  <!-- Minimal decorative element / inner cut -->
  <rect x="13" y="14" width="7" height="2" rx="1" fill="white" opacity="0.8"/>
  <rect x="13" y="18" width="5" height="2" rx="1" fill="white" opacity="0.8"/>
</svg>
